<?xml version="1.0" encoding="UTF-8" standalone="no"?>
<svg width="493.183mm" height="218.722mm"
 xmlns="http://www.w3.org/2000/svg" xmlns:xlink="http://www.w3.org/1999/xlink"  version="1.2" baseProfile="tiny">
<title>Qt SVG Document</title>
<desc>Generated with Qt</desc>
<defs>
</defs>
<g fill="none" stroke="black" stroke-width="1" fill-rule="evenodd" stroke-linecap="square" stroke-linejoin="bevel" >

<g fill="none" stroke="#000000" stroke-opacity="1" stroke-width="1" stroke-linecap="square" stroke-linejoin="bevel" transform="matrix(1,0,0,1,0,0)"
font-family="Cantarell" font-size="10" font-weight="400" font-style="normal" 
>
</g>

<g fill="none" stroke="#aeaeae" stroke-opacity="1" stroke-width="0.283465" stroke-linecap="square" stroke-linejoin="bevel" transform="matrix(1,0,0,1,0,0)"
font-family="Cantarell" font-size="10" font-weight="400" font-style="normal" 
>
<polyline fill="none" vector-effect="none" points="26.5436,619 26.5436,0 " />
<polyline fill="none" vector-effect="none" points="66.7908,619 66.7908,0 " />
<polyline fill="none" vector-effect="none" points="107.038,619 107.038,0 " />
<polyline fill="none" vector-effect="none" points="147.285,619 147.285,0 " />
<polyline fill="none" vector-effect="none" points="187.532,619 187.532,0 " />
<polyline fill="none" vector-effect="none" points="227.78,619 227.78,0 " />
<polyline fill="none" vector-effect="none" points="268.027,619 268.027,0 " />
<polyline fill="none" vector-effect="none" points="308.274,619 308.274,0 " />
<polyline fill="none" vector-effect="none" points="348.521,619 348.521,0 " />
<polyline fill="none" vector-effect="none" points="388.768,619 388.768,0 " />
<polyline fill="none" vector-effect="none" points="429.016,619 429.016,0 " />
<polyline fill="none" vector-effect="none" points="469.263,619 469.263,0 " />
<polyline fill="none" vector-effect="none" points="509.51,619 509.51,0 " />
<polyline fill="none" vector-effect="none" points="549.757,619 549.757,0 " />
<polyline fill="none" vector-effect="none" points="590.004,619 590.004,0 " />
<polyline fill="none" vector-effect="none" points="630.252,619 630.252,0 " />
<polyline fill="none" vector-effect="none" points="670.499,619 670.499,0 " />
<polyline fill="none" vector-effect="none" points="710.746,619 710.746,0 " />
<polyline fill="none" vector-effect="none" points="750.993,619 750.993,0 " />
<polyline fill="none" vector-effect="none" points="791.24,619 791.24,0 " />
<polyline fill="none" vector-effect="none" points="831.488,619 831.488,0 " />
<polyline fill="none" vector-effect="none" points="871.735,619 871.735,0 " />
<polyline fill="none" vector-effect="none" points="911.982,619 911.982,0 " />
<polyline fill="none" vector-effect="none" points="952.229,619 952.229,0 " />
<polyline fill="none" vector-effect="none" points="992.476,619 992.476,0 " />
<polyline fill="none" vector-effect="none" points="1032.72,619 1032.72,0 " />
<polyline fill="none" vector-effect="none" points="1072.97,619 1072.97,0 " />
<polyline fill="none" vector-effect="none" points="1113.22,619 1113.22,0 " />
<polyline fill="none" vector-effect="none" points="1153.47,619 1153.47,0 " />
<polyline fill="none" vector-effect="none" points="1193.71,619 1193.71,0 " />
<polyline fill="none" vector-effect="none" points="1233.96,619 1233.96,0 " />
<polyline fill="none" vector-effect="none" points="1274.21,619 1274.21,0 " />
<polyline fill="none" vector-effect="none" points="1314.45,619 1314.45,0 " />
<polyline fill="none" vector-effect="none" points="1354.7,619 1354.7,0 " />
<polyline fill="none" vector-effect="none" points="1394.95,619 1394.95,0 " />
<polyline fill="none" vector-effect="none" points="0,585.276 1397,585.276 " />
<polyline fill="none" vector-effect="none" points="0,546.274 1397,546.274 " />
<polyline fill="none" vector-effect="none" points="0,507.273 1397,507.273 " />
<polyline fill="none" vector-effect="none" points="0,468.271 1397,468.271 " />
<polyline fill="none" vector-effect="none" points="0,429.269 1397,429.269 " />
<polyline fill="none" vector-effect="none" points="0,390.268 1397,390.268 " />
<polyline fill="none" vector-effect="none" points="0,351.266 1397,351.266 " />
<polyline fill="none" vector-effect="none" points="0,312.265 1397,312.265 " />
<polyline fill="none" vector-effect="none" points="0,273.263 1397,273.263 " />
<polyline fill="none" vector-effect="none" points="0,234.261 1397,234.261 " />
<polyline fill="none" vector-effect="none" points="0,195.26 1397,195.26 " />
<polyline fill="none" vector-effect="none" points="0,156.258 1397,156.258 " />
<polyline fill="none" vector-effect="none" points="0,117.256 1397,117.256 " />
<polyline fill="none" vector-effect="none" points="0,78.2549 1397,78.2549 " />
<polyline fill="none" vector-effect="none" points="0,39.2532 1397,39.2532 " />
<polyline fill="none" vector-effect="none" points="0,0.251623 1397,0.251623 " />
</g>

<g fill="#282828" fill-opacity="1" stroke="#282828" stroke-opacity="1" stroke-width="0.566929" stroke-linecap="square" stroke-linejoin="bevel" transform="matrix(1,0,0,1,0,0)"
font-family="Cantarell" font-size="10" font-weight="400" font-style="normal" 
>
<polyline fill="none" vector-effect="none" points="1.41732,507.273 1395.58,507.273 " />
<path vector-effect="none" fill-rule="evenodd" d="M1397,507.273 L1391.44,509.257 L1391.44,505.288 L1397,507.273"/>
<polyline fill="none" vector-effect="none" points="66.7908,617.583 66.7908,1.41732 " />
<path vector-effect="none" fill-rule="evenodd" d="M66.7908,0 L64.8065,5.55591 L68.775,5.55591 L66.7908,0"/>
</g>

<g fill="none" stroke="#aeaeae" stroke-opacity="1" stroke-width="0.283465" stroke-linecap="square" stroke-linejoin="bevel" transform="matrix(1,0,0,1,0,0)"
font-family="Cantarell" font-size="10" font-weight="400" font-style="normal" 
>
</g>

<g fill="none" stroke="#282828" stroke-opacity="1" stroke-width="0.850394" stroke-linecap="square" stroke-linejoin="bevel" transform="matrix(1,0,0,1,0,0)"
font-family="Cantarell" font-size="10" font-weight="400" font-style="normal" 
>
<polyline fill="none" vector-effect="none" points="26.5436,505.855 26.5436,508.69 " />
<polyline fill="none" vector-effect="none" points="66.7908,505.855 66.7908,508.69 " />
<polyline fill="none" vector-effect="none" points="107.038,505.855 107.038,508.69 " />
<polyline fill="none" vector-effect="none" points="147.285,505.855 147.285,508.69 " />
<polyline fill="none" vector-effect="none" points="187.532,505.855 187.532,508.69 " />
<polyline fill="none" vector-effect="none" points="227.78,505.855 227.78,508.69 " />
<polyline fill="none" vector-effect="none" points="268.027,505.855 268.027,508.69 " />
<polyline fill="none" vector-effect="none" points="308.274,505.855 308.274,508.69 " />
<polyline fill="none" vector-effect="none" points="348.521,505.855 348.521,508.69 " />
<polyline fill="none" vector-effect="none" points="388.768,505.855 388.768,508.69 " />
<polyline fill="none" vector-effect="none" points="429.016,505.855 429.016,508.69 " />
<polyline fill="none" vector-effect="none" points="469.263,505.855 469.263,508.69 " />
<polyline fill="none" vector-effect="none" points="509.51,505.855 509.51,508.69 " />
<polyline fill="none" vector-effect="none" points="549.757,505.855 549.757,508.69 " />
<polyline fill="none" vector-effect="none" points="590.004,505.855 590.004,508.69 " />
<polyline fill="none" vector-effect="none" points="630.252,505.855 630.252,508.69 " />
<polyline fill="none" vector-effect="none" points="670.499,505.855 670.499,508.69 " />
<polyline fill="none" vector-effect="none" points="710.746,505.855 710.746,508.69 " />
<polyline fill="none" vector-effect="none" points="750.993,505.855 750.993,508.69 " />
<polyline fill="none" vector-effect="none" points="791.24,505.855 791.24,508.69 " />
<polyline fill="none" vector-effect="none" points="831.488,505.855 831.488,508.69 " />
<polyline fill="none" vector-effect="none" points="871.735,505.855 871.735,508.69 " />
<polyline fill="none" vector-effect="none" points="911.982,505.855 911.982,508.69 " />
<polyline fill="none" vector-effect="none" points="952.229,505.855 952.229,508.69 " />
<polyline fill="none" vector-effect="none" points="992.476,505.855 992.476,508.69 " />
<polyline fill="none" vector-effect="none" points="1032.72,505.855 1032.72,508.69 " />
<polyline fill="none" vector-effect="none" points="1072.97,505.855 1072.97,508.69 " />
<polyline fill="none" vector-effect="none" points="1113.22,505.855 1113.22,508.69 " />
<polyline fill="none" vector-effect="none" points="1153.47,505.855 1153.47,508.69 " />
<polyline fill="none" vector-effect="none" points="1193.71,505.855 1193.71,508.69 " />
<polyline fill="none" vector-effect="none" points="1233.96,505.855 1233.96,508.69 " />
<polyline fill="none" vector-effect="none" points="1274.21,505.855 1274.21,508.69 " />
<polyline fill="none" vector-effect="none" points="1314.45,505.855 1314.45,508.69 " />
<polyline fill="none" vector-effect="none" points="1354.7,505.855 1354.7,508.69 " />
<polyline fill="none" vector-effect="none" points="65.3735,585.276 68.2081,585.276 " />
<polyline fill="none" vector-effect="none" points="65.3735,546.274 68.2081,546.274 " />
<polyline fill="none" vector-effect="none" points="65.3735,507.273 68.2081,507.273 " />
<polyline fill="none" vector-effect="none" points="65.3735,468.271 68.2081,468.271 " />
<polyline fill="none" vector-effect="none" points="65.3735,429.269 68.2081,429.269 " />
<polyline fill="none" vector-effect="none" points="65.3735,390.268 68.2081,390.268 " />
<polyline fill="none" vector-effect="none" points="65.3735,351.266 68.2081,351.266 " />
<polyline fill="none" vector-effect="none" points="65.3735,312.265 68.2081,312.265 " />
<polyline fill="none" vector-effect="none" points="65.3735,273.263 68.2081,273.263 " />
<polyline fill="none" vector-effect="none" points="65.3735,234.261 68.2081,234.261 " />
<polyline fill="none" vector-effect="none" points="65.3735,195.26 68.2081,195.26 " />
<polyline fill="none" vector-effect="none" points="65.3735,156.258 68.2081,156.258 " />
<polyline fill="none" vector-effect="none" points="65.3735,117.256 68.2081,117.256 " />
<polyline fill="none" vector-effect="none" points="65.3735,78.2549 68.2081,78.2549 " />
<polyline fill="none" vector-effect="none" points="65.3735,39.2532 68.2081,39.2532 " />
</g>

<g fill="none" stroke="#282828" stroke-opacity="1" stroke-width="0.850394" stroke-linecap="square" stroke-linejoin="bevel" transform="matrix(1,0,0,1,0,0)"
font-family="Cantarell" font-size="14" font-weight="400" font-style="normal" 
>
<text fill="#282828" fill-opacity="1" stroke="none" xml:space="preserve" x="1378.14" y="527.266" font-family="Cantarell" font-size="14" font-weight="400" font-style="normal" 
 >X</text>
<text fill="#282828" fill-opacity="1" stroke="none" xml:space="preserve" x="48.3125" y="20" font-family="Cantarell" font-size="14" font-weight="400" font-style="normal" 
 >Y</text>
</g>

<g fill="none" stroke="#ffffff" stroke-opacity="0.784314" stroke-width="1" stroke-linecap="square" stroke-linejoin="bevel" transform="matrix(1,0,0,1,118.746,515.273)"
font-family="Cantarell" font-size="14" font-weight="400" font-style="normal" 
>
<text fill="#ffffff" fill-opacity="0.784314" stroke="none" xml:space="preserve" x="4" y="23" font-family="Cantarell" font-size="14" font-weight="400" font-style="normal" 
 >+0.4</text>
</g>

<g fill="none" stroke="#ffffff" stroke-opacity="0.784314" stroke-width="1" stroke-linecap="square" stroke-linejoin="bevel" transform="matrix(1,0,0,1,199.467,515.273)"
font-family="Cantarell" font-size="14" font-weight="400" font-style="normal" 
>
<text fill="#ffffff" fill-opacity="0.784314" stroke="none" xml:space="preserve" x="4" y="23" font-family="Cantarell" font-size="14" font-weight="400" font-style="normal" 
 >+0.8</text>
</g>

<g fill="none" stroke="#ffffff" stroke-opacity="0.784314" stroke-width="1" stroke-linecap="square" stroke-linejoin="bevel" transform="matrix(1,0,0,1,282.204,515.273)"
font-family="Cantarell" font-size="14" font-weight="400" font-style="normal" 
>
<text fill="#ffffff" fill-opacity="0.784314" stroke="none" xml:space="preserve" x="4" y="23" font-family="Cantarell" font-size="14" font-weight="400" font-style="normal" 
 >+1.2</text>
</g>

<g fill="none" stroke="#ffffff" stroke-opacity="0.784314" stroke-width="1" stroke-linecap="square" stroke-linejoin="bevel" transform="matrix(1,0,0,1,362.151,515.273)"
font-family="Cantarell" font-size="14" font-weight="400" font-style="normal" 
>
<text fill="#ffffff" fill-opacity="0.784314" stroke="none" xml:space="preserve" x="4" y="23" font-family="Cantarell" font-size="14" font-weight="400" font-style="normal" 
 >+1.6</text>
</g>

<g fill="none" stroke="#ffffff" stroke-opacity="0.784314" stroke-width="1" stroke-linecap="square" stroke-linejoin="bevel" transform="matrix(1,0,0,1,441.482,515.273)"
font-family="Cantarell" font-size="14" font-weight="400" font-style="normal" 
>
<text fill="#ffffff" fill-opacity="0.784314" stroke="none" xml:space="preserve" x="4" y="23" font-family="Cantarell" font-size="14" font-weight="400" font-style="normal" 
 >+2.0</text>
</g>

<g fill="none" stroke="#ffffff" stroke-opacity="0.784314" stroke-width="1" stroke-linecap="square" stroke-linejoin="bevel" transform="matrix(1,0,0,1,522.093,515.273)"
font-family="Cantarell" font-size="14" font-weight="400" font-style="normal" 
>
<text fill="#ffffff" fill-opacity="0.784314" stroke="none" xml:space="preserve" x="4" y="23" font-family="Cantarell" font-size="14" font-weight="400" font-style="normal" 
 >+2.4</text>
</g>

<g fill="none" stroke="#ffffff" stroke-opacity="0.784314" stroke-width="1" stroke-linecap="square" stroke-linejoin="bevel" transform="matrix(1,0,0,1,602.814,515.273)"
font-family="Cantarell" font-size="14" font-weight="400" font-style="normal" 
>
<text fill="#ffffff" fill-opacity="0.784314" stroke="none" xml:space="preserve" x="4" y="23" font-family="Cantarell" font-size="14" font-weight="400" font-style="normal" 
 >+2.8</text>
</g>

<g fill="none" stroke="#ffffff" stroke-opacity="0.784314" stroke-width="1" stroke-linecap="square" stroke-linejoin="bevel" transform="matrix(1,0,0,1,683.512,515.273)"
font-family="Cantarell" font-size="14" font-weight="400" font-style="normal" 
>
<text fill="#ffffff" fill-opacity="0.784314" stroke="none" xml:space="preserve" x="4" y="23" font-family="Cantarell" font-size="14" font-weight="400" font-style="normal" 
 >+3.2</text>
</g>

<g fill="none" stroke="#ffffff" stroke-opacity="0.784314" stroke-width="1" stroke-linecap="square" stroke-linejoin="bevel" transform="matrix(1,0,0,1,763.459,515.273)"
font-family="Cantarell" font-size="14" font-weight="400" font-style="normal" 
>
<text fill="#ffffff" fill-opacity="0.784314" stroke="none" xml:space="preserve" x="4" y="23" font-family="Cantarell" font-size="14" font-weight="400" font-style="normal" 
 >+3.6</text>
</g>

<g fill="none" stroke="#ffffff" stroke-opacity="0.784314" stroke-width="1" stroke-linecap="square" stroke-linejoin="bevel" transform="matrix(1,0,0,1,843.196,515.273)"
font-family="Cantarell" font-size="14" font-weight="400" font-style="normal" 
>
<text fill="#ffffff" fill-opacity="0.784314" stroke="none" xml:space="preserve" x="4" y="23" font-family="Cantarell" font-size="14" font-weight="400" font-style="normal" 
 >+4.0</text>
</g>

<g fill="none" stroke="#ffffff" stroke-opacity="0.784314" stroke-width="1" stroke-linecap="square" stroke-linejoin="bevel" transform="matrix(1,0,0,1,923.807,515.273)"
font-family="Cantarell" font-size="14" font-weight="400" font-style="normal" 
>
<text fill="#ffffff" fill-opacity="0.784314" stroke="none" xml:space="preserve" x="4" y="23" font-family="Cantarell" font-size="14" font-weight="400" font-style="normal" 
 >+4.4</text>
</g>

<g fill="none" stroke="#ffffff" stroke-opacity="0.784314" stroke-width="1" stroke-linecap="square" stroke-linejoin="bevel" transform="matrix(1,0,0,1,1004.53,515.273)"
font-family="Cantarell" font-size="14" font-weight="400" font-style="normal" 
>
<text fill="#ffffff" fill-opacity="0.784314" stroke="none" xml:space="preserve" x="4" y="23" font-family="Cantarell" font-size="14" font-weight="400" font-style="normal" 
 >+4.8</text>
</g>

<g fill="none" stroke="#ffffff" stroke-opacity="0.784314" stroke-width="1" stroke-linecap="square" stroke-linejoin="bevel" transform="matrix(1,0,0,1,1086.06,515.273)"
font-family="Cantarell" font-size="14" font-weight="400" font-style="normal" 
>
<text fill="#ffffff" fill-opacity="0.784314" stroke="none" xml:space="preserve" x="4" y="23" font-family="Cantarell" font-size="14" font-weight="400" font-style="normal" 
 >+5.2</text>
</g>

<g fill="none" stroke="#ffffff" stroke-opacity="0.784314" stroke-width="1" stroke-linecap="square" stroke-linejoin="bevel" transform="matrix(1,0,0,1,1166.01,515.273)"
font-family="Cantarell" font-size="14" font-weight="400" font-style="normal" 
>
<text fill="#ffffff" fill-opacity="0.784314" stroke="none" xml:space="preserve" x="4" y="23" font-family="Cantarell" font-size="14" font-weight="400" font-style="normal" 
 >+5.6</text>
</g>

<g fill="none" stroke="#ffffff" stroke-opacity="0.784314" stroke-width="1" stroke-linecap="square" stroke-linejoin="bevel" transform="matrix(1,0,0,1,1245.88,515.273)"
font-family="Cantarell" font-size="14" font-weight="400" font-style="normal" 
>
<text fill="#ffffff" fill-opacity="0.784314" stroke="none" xml:space="preserve" x="4" y="23" font-family="Cantarell" font-size="14" font-weight="400" font-style="normal" 
 >+6.0</text>
</g>

<g fill="none" stroke="#ffffff" stroke-opacity="0.784314" stroke-width="1" stroke-linecap="square" stroke-linejoin="bevel" transform="matrix(1,0,0,1,1326.49,515.273)"
font-family="Cantarell" font-size="14" font-weight="400" font-style="normal" 
>
<text fill="#ffffff" fill-opacity="0.784314" stroke="none" xml:space="preserve" x="4" y="23" font-family="Cantarell" font-size="14" font-weight="400" font-style="normal" 
 >+6.4</text>
</g>

<g fill="none" stroke="#ffffff" stroke-opacity="0.784314" stroke-width="1" stroke-linecap="square" stroke-linejoin="bevel" transform="matrix(1,0,0,1,7.0564,569.276)"
font-family="Cantarell" font-size="14" font-weight="400" font-style="normal" 
>
<text fill="#ffffff" fill-opacity="0.784314" stroke="none" xml:space="preserve" x="4" y="23" font-family="Cantarell" font-size="14" font-weight="400" font-style="normal" 
 >−1.0</text>
</g>

<g fill="none" stroke="#ffffff" stroke-opacity="0.784314" stroke-width="1" stroke-linecap="square" stroke-linejoin="bevel" transform="matrix(1,0,0,1,4.88452,530.274)"
font-family="Cantarell" font-size="14" font-weight="400" font-style="normal" 
>
<text fill="#ffffff" fill-opacity="0.784314" stroke="none" xml:space="preserve" x="4" y="23" font-family="Cantarell" font-size="14" font-weight="400" font-style="normal" 
 >−0.5</text>
</g>

<g fill="none" stroke="#ffffff" stroke-opacity="0.784314" stroke-width="1" stroke-linecap="square" stroke-linejoin="bevel" transform="matrix(1,0,0,1,6.72827,452.271)"
font-family="Cantarell" font-size="14" font-weight="400" font-style="normal" 
>
<text fill="#ffffff" fill-opacity="0.784314" stroke="none" xml:space="preserve" x="4" y="23" font-family="Cantarell" font-size="14" font-weight="400" font-style="normal" 
 >+0.5</text>
</g>

<g fill="none" stroke="#ffffff" stroke-opacity="0.784314" stroke-width="1" stroke-linecap="square" stroke-linejoin="bevel" transform="matrix(1,0,0,1,8.90015,413.269)"
font-family="Cantarell" font-size="14" font-weight="400" font-style="normal" 
>
<text fill="#ffffff" fill-opacity="0.784314" stroke="none" xml:space="preserve" x="4" y="23" font-family="Cantarell" font-size="14" font-weight="400" font-style="normal" 
 >+1.0</text>
</g>

<g fill="none" stroke="#ffffff" stroke-opacity="0.784314" stroke-width="1" stroke-linecap="square" stroke-linejoin="bevel" transform="matrix(1,0,0,1,10.1501,374.268)"
font-family="Cantarell" font-size="14" font-weight="400" font-style="normal" 
>
<text fill="#ffffff" fill-opacity="0.784314" stroke="none" xml:space="preserve" x="4" y="23" font-family="Cantarell" font-size="14" font-weight="400" font-style="normal" 
 >+1.5</text>
</g>

<g fill="none" stroke="#ffffff" stroke-opacity="0.784314" stroke-width="1" stroke-linecap="square" stroke-linejoin="bevel" transform="matrix(1,0,0,1,7.22827,335.266)"
font-family="Cantarell" font-size="14" font-weight="400" font-style="normal" 
>
<text fill="#ffffff" fill-opacity="0.784314" stroke="none" xml:space="preserve" x="4" y="23" font-family="Cantarell" font-size="14" font-weight="400" font-style="normal" 
 >+2.0</text>
</g>

<g fill="none" stroke="#ffffff" stroke-opacity="0.784314" stroke-width="1" stroke-linecap="square" stroke-linejoin="bevel" transform="matrix(1,0,0,1,8.47827,296.265)"
font-family="Cantarell" font-size="14" font-weight="400" font-style="normal" 
>
<text fill="#ffffff" fill-opacity="0.784314" stroke="none" xml:space="preserve" x="4" y="23" font-family="Cantarell" font-size="14" font-weight="400" font-style="normal" 
 >+2.5</text>
</g>

<g fill="none" stroke="#ffffff" stroke-opacity="0.784314" stroke-width="1" stroke-linecap="square" stroke-linejoin="bevel" transform="matrix(1,0,0,1,6.57202,257.263)"
font-family="Cantarell" font-size="14" font-weight="400" font-style="normal" 
>
<text fill="#ffffff" fill-opacity="0.784314" stroke="none" xml:space="preserve" x="4" y="23" font-family="Cantarell" font-size="14" font-weight="400" font-style="normal" 
 >+3.0</text>
</g>

<g fill="none" stroke="#ffffff" stroke-opacity="0.784314" stroke-width="1" stroke-linecap="square" stroke-linejoin="bevel" transform="matrix(1,0,0,1,7.82202,218.261)"
font-family="Cantarell" font-size="14" font-weight="400" font-style="normal" 
>
<text fill="#ffffff" fill-opacity="0.784314" stroke="none" xml:space="preserve" x="4" y="23" font-family="Cantarell" font-size="14" font-weight="400" font-style="normal" 
 >+3.5</text>
</g>

<g fill="none" stroke="#ffffff" stroke-opacity="0.784314" stroke-width="1" stroke-linecap="square" stroke-linejoin="bevel" transform="matrix(1,0,0,1,5.71265,179.26)"
font-family="Cantarell" font-size="14" font-weight="400" font-style="normal" 
>
<text fill="#ffffff" fill-opacity="0.784314" stroke="none" xml:space="preserve" x="4" y="23" font-family="Cantarell" font-size="14" font-weight="400" font-style="normal" 
 >+4.0</text>
</g>

<g fill="none" stroke="#ffffff" stroke-opacity="0.784314" stroke-width="1" stroke-linecap="square" stroke-linejoin="bevel" transform="matrix(1,0,0,1,6.96265,140.258)"
font-family="Cantarell" font-size="14" font-weight="400" font-style="normal" 
>
<text fill="#ffffff" fill-opacity="0.784314" stroke="none" xml:space="preserve" x="4" y="23" font-family="Cantarell" font-size="14" font-weight="400" font-style="normal" 
 >+4.5</text>
</g>

<g fill="none" stroke="#ffffff" stroke-opacity="0.784314" stroke-width="1" stroke-linecap="square" stroke-linejoin="bevel" transform="matrix(1,0,0,1,6.72827,101.256)"
font-family="Cantarell" font-size="14" font-weight="400" font-style="normal" 
>
<text fill="#ffffff" fill-opacity="0.784314" stroke="none" xml:space="preserve" x="4" y="23" font-family="Cantarell" font-size="14" font-weight="400" font-style="normal" 
 >+5.0</text>
</g>

<g fill="none" stroke="#ffffff" stroke-opacity="0.784314" stroke-width="1" stroke-linecap="square" stroke-linejoin="bevel" transform="matrix(1,0,0,1,7.97827,62.2549)"
font-family="Cantarell" font-size="14" font-weight="400" font-style="normal" 
>
<text fill="#ffffff" fill-opacity="0.784314" stroke="none" xml:space="preserve" x="4" y="23" font-family="Cantarell" font-size="14" font-weight="400" font-style="normal" 
 >+5.5</text>
</g>

<g fill="none" stroke="#ffffff" stroke-opacity="0.784314" stroke-width="1" stroke-linecap="square" stroke-linejoin="bevel" transform="matrix(1,0,0,1,6.13452,23.2532)"
font-family="Cantarell" font-size="14" font-weight="400" font-style="normal" 
>
<text fill="#ffffff" fill-opacity="0.784314" stroke="none" xml:space="preserve" x="4" y="23" font-family="Cantarell" font-size="14" font-weight="400" font-style="normal" 
 >+6.0</text>
</g>

<g fill="none" stroke="#282828" stroke-opacity="1" stroke-width="0.850394" stroke-linecap="square" stroke-linejoin="bevel" transform="matrix(1,0,0,1,0,0)"
font-family="Cantarell" font-size="14" font-weight="400" font-style="normal" 
>
</g>

<g fill="#ffffff" fill-opacity="1" stroke="#191970" stroke-opacity="1" stroke-width="0.850394" stroke-linecap="butt" stroke-linejoin="bevel" transform="matrix(1,0,0,1,0,0)"
font-family="Cantarell" font-size="14" font-weight="400" font-style="normal" 
>
<polyline fill="none" vector-effect="none" points="-27.96,507.273 1424.92,507.273 " />
</g>

<g fill="none" stroke="#282828" stroke-opacity="1" stroke-width="0.850394" stroke-linecap="square" stroke-linejoin="bevel" transform="matrix(1,0,0,1,0,0)"
font-family="Cantarell" font-size="14" font-weight="400" font-style="normal" 
>
</g>

<g fill="#ffffff" fill-opacity="1" stroke="#191970" stroke-opacity="1" stroke-width="0.850394" stroke-linecap="butt" stroke-linejoin="bevel" transform="matrix(1,0,0,1,0,0)"
font-family="Cantarell" font-size="14" font-weight="400" font-style="normal" 
>
<polyline fill="none" vector-effect="none" points="-27.96,351.266 1424.92,351.266 " />
</g>

<g fill="none" stroke="#282828" stroke-opacity="1" stroke-width="0.850394" stroke-linecap="square" stroke-linejoin="bevel" transform="matrix(1,0,0,1,0,0)"
font-family="Cantarell" font-size="14" font-weight="400" font-style="normal" 
>
</g>

<g fill="#ffffff" fill-opacity="1" stroke="#ff4500" stroke-opacity="1" stroke-width="0.850394" stroke-linecap="butt" stroke-linejoin="bevel" transform="matrix(1,0,0,1,0,0)"
font-family="Cantarell" font-size="14" font-weight="400" font-style="normal" 
>
</g>

<g fill="none" stroke="#282828" stroke-opacity="1" stroke-width="0.850394" stroke-linecap="square" stroke-linejoin="bevel" transform="matrix(1,0,0,1,0,0)"
font-family="Cantarell" font-size="14" font-weight="400" font-style="normal" 
>
</g>
</g>
</svg>
